<mxfile host="app.diagrams.net" modified="2023-12-11T17:06:03.209Z" agent="Mozilla/5.0 (Windows NT 10.0; Win64; x64) AppleWebKit/537.36 (KHTML, like Gecko) Chrome/120.0.0.0 Safari/537.36" etag="4sI3YlQg9nGMcgb5rA1c" version="22.1.7" type="github">
  <diagram name="Page-1" id="A03Ekr3fW7HVUYN9uGGE">
    <mxGraphModel dx="778" dy="396" grid="1" gridSize="10" guides="1" tooltips="1" connect="1" arrows="1" fold="1" page="1" pageScale="1" pageWidth="827" pageHeight="1169" math="0" shadow="0">
      <root>
        <mxCell id="0" />
        <mxCell id="1" parent="0" />
        <mxCell id="UVscFh6UX2pVM3g8UQsD-9" style="edgeStyle=orthogonalEdgeStyle;rounded=0;orthogonalLoop=1;jettySize=auto;html=1;entryX=0;entryY=0.25;entryDx=0;entryDy=0;exitX=0;exitY=0.75;exitDx=0;exitDy=0;" edge="1" parent="1" source="UVscFh6UX2pVM3g8UQsD-10" target="UVscFh6UX2pVM3g8UQsD-13">
          <mxGeometry relative="1" as="geometry" />
        </mxCell>
        <mxCell id="UVscFh6UX2pVM3g8UQsD-10" value="&lt;div&gt;&lt;br&gt;&lt;/div&gt;&lt;div&gt;&amp;nbsp; &quot;uuid&quot;: &quot;uniqueUserId1&quot;,&lt;/div&gt;&lt;div&gt;&amp;nbsp; &quot;username&quot;: &quot;example_user&quot;&lt;br&gt;&lt;br&gt;Explore MuscleRoutines()&lt;/div&gt;&lt;div&gt;Create/Delete/FinishRoutine()&lt;br&gt;Fetch Current/Finished Routines()&lt;br&gt;CalculateNutritions()&lt;br&gt;NewsletterSubscribe()&lt;br&gt;DeactivateAccount()&lt;br&gt;&lt;/div&gt;" style="rounded=0;whiteSpace=wrap;html=1;align=left;" vertex="1" parent="1">
          <mxGeometry x="155" y="60" width="175" height="170" as="geometry" />
        </mxCell>
        <mxCell id="UVscFh6UX2pVM3g8UQsD-11" value="App Users" style="text;html=1;align=center;verticalAlign=middle;resizable=0;points=[];autosize=1;strokeColor=none;fillColor=none;" vertex="1" parent="1">
          <mxGeometry x="160" y="30" width="80" height="30" as="geometry" />
        </mxCell>
        <mxCell id="UVscFh6UX2pVM3g8UQsD-12" style="edgeStyle=orthogonalEdgeStyle;rounded=0;orthogonalLoop=1;jettySize=auto;html=1;entryX=0;entryY=0.5;entryDx=0;entryDy=0;exitX=0;exitY=0.75;exitDx=0;exitDy=0;" edge="1" parent="1" source="UVscFh6UX2pVM3g8UQsD-13" target="UVscFh6UX2pVM3g8UQsD-15">
          <mxGeometry relative="1" as="geometry" />
        </mxCell>
        <mxCell id="UVscFh6UX2pVM3g8UQsD-13" value="&lt;div&gt;&amp;nbsp; &quot;activityId&quot;: &quot;uniqueActivityId1&quot;,&lt;/div&gt;&lt;div&gt;&amp;nbsp; &quot;name&quot;: &quot;Squats&quot;,&lt;/div&gt;&lt;div&gt;&amp;nbsp; &quot;desc&quot;: &quot;Lower body exercise&quot;,&lt;/div&gt;&lt;div&gt;&amp;nbsp; &quot;duration&quot;: 30,&lt;/div&gt;&lt;div&gt;&amp;nbsp; &quot;type&quot;: &quot;Strength&quot;,&lt;/div&gt;&lt;div&gt;&amp;nbsp; &quot;muscle&quot;: &quot;Legs&quot;,&lt;/div&gt;&lt;div&gt;&amp;nbsp; &quot;images&quot;: [&quot;url1&quot;, &quot;url2&quot;],&lt;/div&gt;&lt;div&gt;&amp;nbsp; &quot;strength&quot;: &quot;Intermediate&quot;,&lt;/div&gt;&lt;div&gt;&lt;span style=&quot;background-color: initial;&quot;&gt;&amp;nbsp; &amp;nbsp;finished: boolean&lt;/span&gt;&lt;/div&gt;&lt;div&gt;&lt;br&gt;GetSets()&lt;br&gt;Add/remove/finish sets()&lt;br style=&quot;border-color: var(--border-color);&quot;&gt;Attach Pictures()&lt;br&gt;Finish/Unfinish Routine()&lt;/div&gt;" style="rounded=0;whiteSpace=wrap;html=1;align=left;" vertex="1" parent="1">
          <mxGeometry x="160" y="300" width="230" height="240" as="geometry" />
        </mxCell>
        <mxCell id="UVscFh6UX2pVM3g8UQsD-14" value="// activity subcollection: users/{userId}/activities" style="text;html=1;align=center;verticalAlign=middle;resizable=0;points=[];autosize=1;strokeColor=none;fillColor=none;" vertex="1" parent="1">
          <mxGeometry x="150" y="270" width="270" height="30" as="geometry" />
        </mxCell>
        <mxCell id="UVscFh6UX2pVM3g8UQsD-15" value="&lt;div&gt;&amp;nbsp; &quot;setId&quot;: &quot;uniqueSetId1&quot;,&lt;/div&gt;&lt;div&gt;&amp;nbsp; &quot;kg&quot;: 50,&lt;/div&gt;&lt;div&gt;&amp;nbsp; &quot;reps&quot;: 10,&amp;nbsp;&lt;/div&gt;&lt;div style=&quot;&quot;&gt;finished: boolean&lt;br&gt;&lt;br&gt;Retrieve/Add()&lt;/div&gt;" style="rounded=0;whiteSpace=wrap;html=1;align=left;" vertex="1" parent="1">
          <mxGeometry x="150" y="690" width="170" height="100" as="geometry" />
        </mxCell>
        <mxCell id="UVscFh6UX2pVM3g8UQsD-16" value="// sets subcollection: users/{userId}/activities/{activityId}/sets" style="text;html=1;align=center;verticalAlign=middle;resizable=0;points=[];autosize=1;strokeColor=none;fillColor=none;" vertex="1" parent="1">
          <mxGeometry x="140" y="660" width="340" height="30" as="geometry" />
        </mxCell>
      </root>
    </mxGraphModel>
  </diagram>
</mxfile>
